<svg width="53.000000" height="53.000000" viewBox="0 0 53 53" fill="none" xmlns="http://www.w3.org/2000/svg" xmlns:xlink="http://www.w3.org/1999/xlink">
	<desc>
			Created with Pixso.
	</desc>
	<defs/>
	<path id="Vector" d="M45.23 7.76C40.23 2.75 33.57 0 26.5 0C19.42 0 12.76 2.75 7.76 7.76C2.75 12.76 0 19.42 0 26.5C0 33.57 2.75 40.23 7.76 45.23C12.76 50.24 19.42 53 26.5 53C33.57 53 40.23 50.24 45.23 45.23C50.24 40.23 53 33.57 53 26.5C53 19.42 50.24 12.76 45.23 7.76ZM26.5 47.79C14.75 47.79 5.2 38.24 5.2 26.5C5.2 26.48 5.2 26.46 5.2 26.44C5.2 26.43 5.2 26.43 5.2 26.42C5.2 26.41 5.2 26.41 5.2 26.4C5.25 14.8 14.63 5.36 26.21 5.2C26.23 5.2 26.25 5.2 26.28 5.2C26.29 5.2 26.31 5.2 26.32 5.2C26.38 5.2 26.44 5.2 26.5 5.2C38.24 5.2 47.79 14.75 47.79 26.5C47.79 38.24 38.24 47.79 26.5 47.79Z" fill="#FFFFFF" fill-opacity="1.000000" fill-rule="nonzero"/>
</svg>
